# xmcd
#
# Track frame offsets:
# 150
# 15300
# 34652
# 53135
# 70172
# 87855
# 105372
# 123152
# 143510
# 162510
# 180812
# 198980
# 223507
# 243617
#
# Disc length: 3466 seconds
#
#
# Revision: 3
# Processed by: cddbd v1.5.1PL0 Copyright (c) Steve Scherf et al.
# Submitted via: FreeRIP 2.942 
#
DISCID=ac0d880e
DTITLE=Zezé di Camargo and Luciano - Os 14 Maiores Sucessos
DYEAR=1900
DGENRE=
TTITLE0=É o Amor
TTITLE1=Saudade Bandida
TTITLE2=Faz Mais Uma Vez Comigo
TTITLE3=Eu Só Penso Em Você
TTITLE4=Você Vai Ver
TTITLE5=Vem Cuidar De Mim
TTITLE6=Pão De Mel
TTITLE7=Sem Medo De Ser Feliz
TTITLE8=Menina Veneno
TTITLE9=Indiferença
TTITLE10=Seus Olhos
TTITLE11=Preciso Ser Amado
TTITLE12=Quando A Gente Ama Demais
TTITLE13=Salva Meu Coração
EXTD=
EXTT0=
EXTT1=
EXTT2=
EXTT3=
EXTT4=
EXTT5=
EXTT6=
EXTT7=
EXTT8=
EXTT9=
EXTT10=
EXTT11=
EXTT12=
EXTT13=
PLAYORDER=
